# Blender v3.1.2 OBJ File: ''
# www.blender.org
mtllib Reticle.mtl
o 円
v 2.036890 3.422321 -0.000000
v 1.997752 3.815589 0.048352
v 1.881841 4.193744 0.094847
v 1.693612 4.542253 0.137696
v 1.440299 4.847725 0.175254
v 1.131636 5.098419 0.206077
v 0.779484 5.284701 0.228981
v 0.397378 5.399413 0.243085
v -0.000000 5.438147 0.247847
v -0.397378 5.399413 0.243085
v -0.779484 5.284701 0.228981
v -1.131635 5.098419 0.206077
v -1.440299 4.847725 0.175254
v -1.693612 4.542253 0.137697
v -1.881841 4.193744 0.094847
v -1.997752 3.815589 0.048353
v -2.036890 3.422320 0.000000
v -1.997752 3.029053 -0.048352
v -1.881841 2.650898 -0.094847
v -1.693612 2.302388 -0.137696
v -1.440299 1.996917 -0.175254
v -1.131636 1.746223 -0.206077
v -0.779484 1.559940 -0.228981
v -0.397378 1.445228 -0.243085
v 0.000000 1.406495 -0.247847
v 0.397378 1.445228 -0.243085
v 0.779484 1.559940 -0.228981
v 1.131635 1.746222 -0.206077
v 1.440299 1.996916 -0.175254
v 1.693612 2.302388 -0.137697
v 1.881841 2.650898 -0.094847
v 1.997752 3.029053 -0.048353
v -1.939314 4.215435 0.011895
v -1.939314 2.956826 0.011895
v -0.680704 4.215435 0.011895
v -0.680704 2.956826 0.011895
v -1.939314 3.586131 0.011895
v -0.680704 3.586131 0.011895
v -1.300023 4.215435 0.011895
v -1.300023 2.956826 0.011895
v -1.619668 4.215435 0.011895
v -1.619668 2.956826 0.011895
v -0.990363 2.956826 0.011895
v -0.990363 4.215435 0.011895
v -0.680704 3.900783 0.011895
v -1.939314 3.900783 0.011895
v -1.939314 3.271478 0.011895
v -0.680704 3.271478 0.011895
v -0.680704 4.058109 0.011895
v -1.300023 4.058109 0.011895
v -1.619668 4.058109 0.011895
v -0.990363 4.058109 0.011895
v -1.939314 4.058109 0.011895
v -1.779491 4.215435 0.011895
v -1.779491 2.956826 0.011895
v -1.779491 3.586131 0.011895
v -1.779491 3.900783 0.011895
v -1.779491 3.271478 0.011895
v -1.779491 4.058109 0.011895
v -0.835534 2.956826 0.011895
v -0.835534 3.586131 0.011895
v -0.835534 4.215435 0.011895
v -0.835534 3.900783 0.011895
v -0.835534 3.271478 0.011895
v -0.835534 4.058109 0.011895
v -1.939314 3.114152 0.011895
v -0.680704 3.114152 0.011895
v -1.300023 3.114152 0.011895
v -1.619668 3.114152 0.011895
v -0.990363 3.114152 0.011895
v -1.779491 3.114152 0.011895
v -0.835534 3.114152 0.011895
v 0.648839 4.256919 0.000000
v 0.648839 2.998310 -0.000000
v 1.907448 4.256919 -0.000000
v 1.907448 2.998310 -0.000000
v 0.648839 3.627614 -0.000000
v 1.907448 3.627614 -0.000000
v 1.288130 4.256919 -0.000000
v 1.288130 2.998310 -0.000000
v 0.968484 4.256919 0.000000
v 0.968484 2.998310 -0.000000
v 1.597789 2.998310 -0.000000
v 1.597789 4.256919 -0.000000
v 1.907448 3.942267 -0.000000
v 0.648839 3.942267 0.000000
v 0.648839 3.312962 -0.000000
v 1.907448 3.312962 -0.000000
v 1.907448 4.099593 -0.000000
v 1.288130 4.099593 -0.000000
v 0.968484 4.099593 0.000000
v 1.597789 4.099593 -0.000000
v 0.648839 4.099593 0.000000
v 0.808661 4.256919 0.000000
v 0.808661 2.998310 -0.000000
v 0.808661 3.627614 -0.000000
v 0.808661 3.942267 -0.000000
v 0.808661 3.312962 -0.000000
v 0.808661 4.099593 0.000000
v 1.752618 2.998310 -0.000000
v 1.752618 3.627614 -0.000000
v 1.752618 4.256919 -0.000000
v 1.752618 3.942267 -0.000000
v 1.752618 3.312962 -0.000000
v 1.752618 4.099593 -0.000000
v 0.648839 3.155636 -0.000000
v 1.907448 3.155636 -0.000000
v 1.288130 3.155636 -0.000000
v 0.968484 3.155636 -0.000000
v 1.597789 3.155636 -0.000000
v 0.808661 3.155636 -0.000000
v 1.752618 3.155636 -0.000000
v -0.629305 5.395428 0.000000
v -0.629305 4.136819 0.000000
v 0.629305 5.395428 0.000000
v 0.629305 4.136819 -0.000000
v -0.629305 4.766123 0.000000
v 0.629305 4.766123 0.000000
v 0.009986 5.395428 0.000000
v 0.009986 4.136819 0.000000
v -0.309659 5.395428 0.000000
v -0.309659 4.136819 0.000000
v 0.319646 4.136819 -0.000000
v 0.319646 5.395428 0.000000
v 0.629305 5.080776 0.000000
v -0.629305 5.080776 0.000000
v -0.629305 4.451471 0.000000
v 0.629305 4.451471 -0.000000
v 0.629305 5.238102 0.000000
v 0.009986 5.238102 0.000000
v -0.309659 5.238102 0.000000
v 0.319646 5.238102 0.000000
v -0.629305 5.238102 0.000000
v -0.469482 5.395428 0.000000
v -0.469482 4.136819 0.000000
v -0.469482 4.766123 0.000000
v -0.469482 5.080776 0.000000
v -0.469482 4.451471 0.000000
v -0.469482 5.238102 0.000000
v 0.474475 4.136819 -0.000000
v 0.474475 4.766123 0.000000
v 0.474475 5.395428 0.000000
v 0.474475 5.080776 0.000000
v 0.474475 4.451471 0.000000
v 0.474475 5.238102 0.000000
v -0.629305 4.294145 0.000000
v 0.629305 4.294145 -0.000000
v 0.009986 4.294145 0.000000
v -0.309659 4.294145 0.000000
v 0.319646 4.294145 -0.000000
v -0.469482 4.294145 0.000000
v 0.474475 4.294145 -0.000000
v -0.629305 2.960535 0.000000
v -0.629305 1.701926 0.000000
v 0.629305 2.960535 0.000000
v 0.629305 1.701926 -0.000000
v -0.629305 2.331231 0.000000
v 0.629305 2.331231 -0.000000
v 0.009986 2.960535 0.000000
v 0.009986 1.701926 -0.000000
v -0.309659 2.960535 0.000000
v -0.309659 1.701926 -0.000000
v 0.319646 1.701926 -0.000000
v 0.319646 2.960535 0.000000
v 0.629305 2.645883 -0.000000
v -0.629305 2.645883 0.000000
v -0.629305 2.016578 0.000000
v 0.629305 2.016578 -0.000000
v 0.629305 2.803209 0.000000
v 0.009986 2.803209 0.000000
v -0.309659 2.803209 0.000000
v 0.319646 2.803209 0.000000
v -0.629305 2.803209 0.000000
v -0.469482 2.960535 0.000000
v -0.469482 1.701926 -0.000000
v -0.469482 2.331231 0.000000
v -0.469482 2.645883 0.000000
v -0.469482 2.016578 0.000000
v -0.469482 2.803209 0.000000
v 0.474475 1.701926 -0.000000
v 0.474475 2.331231 -0.000000
v 0.474475 2.960535 0.000000
v 0.474475 2.645883 0.000000
v 0.474475 2.016578 -0.000000
v 0.474475 2.803209 0.000000
v -0.629305 1.859252 0.000000
v 0.629305 1.859252 -0.000000
v 0.009986 1.859252 -0.000000
v -0.309659 1.859252 0.000000
v 0.319646 1.859252 -0.000000
v -0.469482 1.859252 0.000000
v 0.474475 1.859252 -0.000000
vt 1.000000 0.876984
vt 0.875000 1.000000
vt 0.875000 0.876984
vt 0.500000 0.876984
vt 0.250000 1.000000
vt 0.250000 0.876984
vt 1.000000 0.253967
vt 0.875000 0.507935
vt 0.875000 0.253967
vt 1.000000 0.126984
vt 0.875000 0.126984
vt 1.000000 0.507935
vt 0.875000 0.753967
vt 0.125000 1.000000
vt 0.125000 0.876984
vt 0.750000 0.876984
vt 0.500000 1.000000
vt 0.000000 1.000000
vt 0.000000 0.876984
vt 0.125000 0.253967
vt 0.000000 0.507935
vt 0.000000 0.253967
vt 0.125000 0.126984
vt 0.000000 0.126984
vt 0.125000 0.507935
vt 0.000000 0.753967
vt 0.125000 0.000000
vt 0.000000 0.000000
vt 0.750000 0.000000
vt 0.500000 0.126984
vt 0.500000 0.000000
vt 0.250000 0.000000
vt 0.250000 0.126984
vt 1.000000 0.000000
vt 0.875000 0.000000
vt 0.125000 0.753967
vt 1.000000 0.753967
vt 0.750000 0.126984
vt 0.750000 1.000000
vt 1.000000 1.000000
vt 1.000000 0.876984
vt 0.875000 1.000000
vt 0.875000 0.876984
vt 0.500000 0.876984
vt 0.250000 1.000000
vt 0.250000 0.876984
vt 1.000000 0.253967
vt 0.875000 0.507935
vt 0.875000 0.253967
vt 1.000000 0.126984
vt 0.875000 0.126984
vt 1.000000 0.507935
vt 0.875000 0.753967
vt 0.125000 1.000000
vt 0.125000 0.876984
vt 0.750000 0.876984
vt 0.500000 1.000000
vt 0.000000 1.000000
vt 0.000000 0.876984
vt 0.125000 0.253967
vt 0.000000 0.507935
vt 0.000000 0.253967
vt 0.125000 0.126984
vt 0.000000 0.126984
vt 0.125000 0.507935
vt 0.000000 0.753967
vt 0.125000 0.000000
vt 0.000000 0.000000
vt 0.750000 0.000000
vt 0.500000 0.126984
vt 0.500000 0.000000
vt 0.250000 0.000000
vt 0.250000 0.126984
vt 1.000000 0.000000
vt 0.875000 0.000000
vt 0.125000 0.753967
vt 1.000000 0.753967
vt 0.750000 0.126984
vt 0.750000 1.000000
vt 1.000000 1.000000
vt 1.000000 0.876984
vt 0.875000 1.000000
vt 0.875000 0.876984
vt 0.500000 0.876984
vt 0.250000 1.000000
vt 0.250000 0.876984
vt 1.000000 0.253967
vt 0.875000 0.507935
vt 0.875000 0.253967
vt 1.000000 0.126984
vt 0.875000 0.126984
vt 1.000000 0.507935
vt 0.875000 0.753967
vt 0.125000 1.000000
vt 0.125000 0.876984
vt 0.750000 0.876984
vt 0.500000 1.000000
vt 0.000000 1.000000
vt 0.000000 0.876984
vt 0.125000 0.253967
vt 0.000000 0.507935
vt 0.000000 0.253967
vt 0.125000 0.126984
vt 0.000000 0.126984
vt 0.125000 0.507935
vt 0.000000 0.753967
vt 0.125000 0.000000
vt 0.000000 0.000000
vt 0.750000 0.000000
vt 0.500000 0.126984
vt 0.500000 0.000000
vt 0.250000 0.000000
vt 0.250000 0.126984
vt 1.000000 0.000000
vt 0.875000 0.000000
vt 0.125000 0.753967
vt 1.000000 0.753967
vt 0.750000 0.126984
vt 0.750000 1.000000
vt 1.000000 1.000000
vt 1.000000 0.876984
vt 0.875000 1.000000
vt 0.875000 0.876984
vt 0.500000 0.876984
vt 0.250000 1.000000
vt 0.250000 0.876984
vt 1.000000 0.253967
vt 0.875000 0.507935
vt 0.875000 0.253967
vt 1.000000 0.126984
vt 0.875000 0.126984
vt 1.000000 0.507935
vt 0.875000 0.753967
vt 0.125000 1.000000
vt 0.125000 0.876984
vt 0.750000 0.876984
vt 0.500000 1.000000
vt 0.000000 1.000000
vt 0.000000 0.876984
vt 0.125000 0.253967
vt 0.000000 0.507935
vt 0.000000 0.253967
vt 0.125000 0.126984
vt 0.000000 0.126984
vt 0.125000 0.507935
vt 0.000000 0.753967
vt 0.125000 0.000000
vt 0.000000 0.000000
vt 0.750000 0.000000
vt 0.500000 0.126984
vt 0.500000 0.000000
vt 0.250000 0.000000
vt 0.250000 0.126984
vt 1.000000 0.000000
vt 0.875000 0.000000
vt 0.125000 0.753967
vt 1.000000 0.753967
vt 0.750000 0.126984
vt 0.750000 1.000000
vt 1.000000 1.000000
vn 0.0000 -0.0000 1.0000
usemtl マテリアル.001
s off
f 60/1/1 67/2/1 72/3/1
f 61/4/1 45/5/1 63/6/1
f 42/7/1 68/8/1 69/9/1
f 55/10/1 69/9/1 71/11/1
f 40/12/1 70/13/1 68/8/1
f 63/6/1 49/14/1 65/15/1
f 64/16/1 38/17/1 61/4/1
f 65/15/1 35/18/1 62/19/1
f 51/20/1 39/21/1 41/22/1
f 59/23/1 41/22/1 54/24/1
f 50/25/1 44/26/1 39/21/1
f 53/27/1 54/24/1 33/28/1
f 47/29/1 56/30/1 37/31/1
f 46/32/1 59/23/1 53/27/1
f 37/31/1 57/33/1 46/32/1
f 34/34/1 71/11/1 66/35/1
f 52/36/1 62/19/1 44/26/1
f 43/37/1 72/3/1 70/13/1
f 66/35/1 58/38/1 47/29/1
f 72/3/1 48/39/1 64/16/1
f 60/1/1 36/40/1 67/2/1
f 61/4/1 38/17/1 45/5/1
f 42/7/1 40/12/1 68/8/1
f 55/10/1 42/7/1 69/9/1
f 40/12/1 43/37/1 70/13/1
f 63/6/1 45/5/1 49/14/1
f 64/16/1 48/39/1 38/17/1
f 65/15/1 49/14/1 35/18/1
f 51/20/1 50/25/1 39/21/1
f 59/23/1 51/20/1 41/22/1
f 50/25/1 52/36/1 44/26/1
f 53/27/1 59/23/1 54/24/1
f 47/29/1 58/38/1 56/30/1
f 46/32/1 57/33/1 59/23/1
f 37/31/1 56/30/1 57/33/1
f 34/34/1 55/10/1 71/11/1
f 52/36/1 65/15/1 62/19/1
f 43/37/1 60/1/1 72/3/1
f 66/35/1 71/11/1 58/38/1
f 72/3/1 67/2/1 48/39/1
usemtl マテリアル.002
f 100/41/1 107/42/1 112/43/1
f 101/44/1 85/45/1 103/46/1
f 82/47/1 108/48/1 109/49/1
f 95/50/1 109/49/1 111/51/1
f 80/52/1 110/53/1 108/48/1
f 103/46/1 89/54/1 105/55/1
f 104/56/1 78/57/1 101/44/1
f 105/55/1 75/58/1 102/59/1
f 91/60/1 79/61/1 81/62/1
f 99/63/1 81/62/1 94/64/1
f 90/65/1 84/66/1 79/61/1
f 93/67/1 94/64/1 73/68/1
f 87/69/1 96/70/1 77/71/1
f 86/72/1 99/63/1 93/67/1
f 77/71/1 97/73/1 86/72/1
f 74/74/1 111/51/1 106/75/1
f 92/76/1 102/59/1 84/66/1
f 83/77/1 112/43/1 110/53/1
f 106/75/1 98/78/1 87/69/1
f 112/43/1 88/79/1 104/56/1
f 100/41/1 76/80/1 107/42/1
f 101/44/1 78/57/1 85/45/1
f 82/47/1 80/52/1 108/48/1
f 95/50/1 82/47/1 109/49/1
f 80/52/1 83/77/1 110/53/1
f 103/46/1 85/45/1 89/54/1
f 104/56/1 88/79/1 78/57/1
f 105/55/1 89/54/1 75/58/1
f 91/60/1 90/65/1 79/61/1
f 99/63/1 91/60/1 81/62/1
f 90/65/1 92/76/1 84/66/1
f 93/67/1 99/63/1 94/64/1
f 87/69/1 98/78/1 96/70/1
f 86/72/1 97/73/1 99/63/1
f 77/71/1 96/70/1 97/73/1
f 74/74/1 95/50/1 111/51/1
f 92/76/1 105/55/1 102/59/1
f 83/77/1 100/41/1 112/43/1
f 106/75/1 111/51/1 98/78/1
f 112/43/1 107/42/1 88/79/1
usemtl マテリアル.003
f 140/81/1 147/82/1 152/83/1
f 141/84/1 125/85/1 143/86/1
f 122/87/1 148/88/1 149/89/1
f 135/90/1 149/89/1 151/91/1
f 120/92/1 150/93/1 148/88/1
f 143/86/1 129/94/1 145/95/1
f 144/96/1 118/97/1 141/84/1
f 145/95/1 115/98/1 142/99/1
f 131/100/1 119/101/1 121/102/1
f 139/103/1 121/102/1 134/104/1
f 130/105/1 124/106/1 119/101/1
f 133/107/1 134/104/1 113/108/1
f 127/109/1 136/110/1 117/111/1
f 126/112/1 139/103/1 133/107/1
f 117/111/1 137/113/1 126/112/1
f 114/114/1 151/91/1 146/115/1
f 132/116/1 142/99/1 124/106/1
f 123/117/1 152/83/1 150/93/1
f 146/115/1 138/118/1 127/109/1
f 152/83/1 128/119/1 144/96/1
f 140/81/1 116/120/1 147/82/1
f 141/84/1 118/97/1 125/85/1
f 122/87/1 120/92/1 148/88/1
f 135/90/1 122/87/1 149/89/1
f 120/92/1 123/117/1 150/93/1
f 143/86/1 125/85/1 129/94/1
f 144/96/1 128/119/1 118/97/1
f 145/95/1 129/94/1 115/98/1
f 131/100/1 130/105/1 119/101/1
f 139/103/1 131/100/1 121/102/1
f 130/105/1 132/116/1 124/106/1
f 133/107/1 139/103/1 134/104/1
f 127/109/1 138/118/1 136/110/1
f 126/112/1 137/113/1 139/103/1
f 117/111/1 136/110/1 137/113/1
f 114/114/1 135/90/1 151/91/1
f 132/116/1 145/95/1 142/99/1
f 123/117/1 140/81/1 152/83/1
f 146/115/1 151/91/1 138/118/1
f 152/83/1 147/82/1 128/119/1
usemtl マテリアル.004
f 180/121/1 187/122/1 192/123/1
f 181/124/1 165/125/1 183/126/1
f 162/127/1 188/128/1 189/129/1
f 175/130/1 189/129/1 191/131/1
f 160/132/1 190/133/1 188/128/1
f 183/126/1 169/134/1 185/135/1
f 184/136/1 158/137/1 181/124/1
f 185/135/1 155/138/1 182/139/1
f 171/140/1 159/141/1 161/142/1
f 179/143/1 161/142/1 174/144/1
f 170/145/1 164/146/1 159/141/1
f 173/147/1 174/144/1 153/148/1
f 167/149/1 176/150/1 157/151/1
f 166/152/1 179/143/1 173/147/1
f 157/151/1 177/153/1 166/152/1
f 154/154/1 191/131/1 186/155/1
f 172/156/1 182/139/1 164/146/1
f 163/157/1 192/123/1 190/133/1
f 186/155/1 178/158/1 167/149/1
f 192/123/1 168/159/1 184/136/1
f 180/121/1 156/160/1 187/122/1
f 181/124/1 158/137/1 165/125/1
f 162/127/1 160/132/1 188/128/1
f 175/130/1 162/127/1 189/129/1
f 160/132/1 163/157/1 190/133/1
f 183/126/1 165/125/1 169/134/1
f 184/136/1 168/159/1 158/137/1
f 185/135/1 169/134/1 155/138/1
f 171/140/1 170/145/1 159/141/1
f 179/143/1 171/140/1 161/142/1
f 170/145/1 172/156/1 164/146/1
f 173/147/1 179/143/1 174/144/1
f 167/149/1 178/158/1 176/150/1
f 166/152/1 177/153/1 179/143/1
f 157/151/1 176/150/1 177/153/1
f 154/154/1 175/130/1 191/131/1
f 172/156/1 185/135/1 182/139/1
f 163/157/1 180/121/1 192/123/1
f 186/155/1 191/131/1 178/158/1
f 192/123/1 187/122/1 168/159/1
l 2 1
l 3 2
l 4 3
l 5 4
l 6 5
l 7 6
l 8 7
l 9 8
l 10 9
l 11 10
l 12 11
l 13 12
l 14 13
l 15 14
l 16 15
l 17 16
l 18 17
l 19 18
l 20 19
l 21 20
l 22 21
l 23 22
l 24 23
l 25 24
l 26 25
l 27 26
l 28 27
l 29 28
l 30 29
l 31 30
l 32 31
l 1 32
