# Blender v3.1.2 OBJ File: ''
# www.blender.org
mtllib Ret.mtl
o 立方体
v 0.040017 -0.043396 -0.029146
v 0.040017 0.043396 -0.029146
v 0.040017 -0.043396 0.006576
v 0.040017 0.043396 0.006576
v -0.040017 -0.043396 -0.029146
v -0.040017 0.043396 -0.029146
v -0.040017 -0.043396 0.006576
v -0.040017 0.043396 0.006576
v -0.040017 -0.043396 -0.029146
v 0.000000 -0.043396 -0.029146
v -0.040017 -0.043396 -0.029146
v 0.000000 -0.043396 -0.029146
v 0.155158 -0.155158 -0.009816
v -0.155158 -0.155158 -0.009816
v 0.155158 0.155158 -0.009816
v -0.155158 0.155158 -0.009816
v 0.000000 -0.155158 -0.009816
v 0.000000 0.155158 -0.009816
v 0.155158 0.000000 -0.009816
v -0.155158 0.000000 -0.009816
v -0.155158 0.077579 -0.009816
v 0.155158 0.077579 -0.009816
v 0.155158 -0.077579 -0.009816
v -0.155158 -0.077579 -0.009816
v 0.077579 0.155158 -0.009816
v 0.077579 -0.155158 -0.009816
v -0.077579 -0.155158 -0.009816
v -0.077579 0.155158 -0.009816
v 0.116368 0.155158 -0.009816
v 0.116368 0.000000 -0.009816
v 0.116368 0.077579 -0.009816
v 0.116368 -0.077579 -0.009816
v 0.116368 -0.155158 -0.009816
v -0.116368 -0.155158 -0.009816
v -0.116368 0.155158 -0.009816
v -0.116368 0.000000 -0.009816
v -0.116368 0.077579 -0.009816
v -0.116368 -0.077579 -0.009816
v -0.155158 0.116368 -0.009816
v 0.000000 0.116368 -0.009816
v 0.155158 0.116368 -0.009816
v 0.077579 0.116368 -0.009816
v -0.077579 0.116368 -0.009816
v 0.116368 0.116368 -0.009816
v -0.116368 0.116368 -0.009816
v 0.155158 -0.116368 -0.009816
v -0.155158 -0.116368 -0.009816
v 0.000000 -0.116368 -0.009816
v 0.077579 -0.116368 -0.009816
v -0.077579 -0.116368 -0.009816
v 0.116368 -0.116368 -0.009816
v -0.116368 -0.116368 -0.009816
vt 0.625000 0.000000
vt 0.375000 0.250000
vt 0.375000 0.000000
vt 0.625000 0.250000
vt 0.375000 0.500000
vt 0.375000 0.750000
vt 0.625000 0.500000
vt 0.375000 0.875000
vt 0.375000 0.750000
vt 0.125000 0.750000
vt 0.125000 0.500000
vt 0.875000 0.500000
vt 0.625000 0.750000
vt 0.375000 0.750000
vt 0.375000 1.000000
vt 0.625000 1.000000
vt 0.250000 0.750000
vt 0.875000 0.750000
vt 1.000000 0.875000
vt 0.875000 1.000000
vt 0.875000 0.875000
vt 0.500000 0.875000
vt 0.250000 1.000000
vt 0.250000 0.875000
vt 1.000000 0.250000
vt 0.875000 0.500000
vt 0.875000 0.250000
vt 1.000000 0.500000
vt 0.875000 0.750000
vt 1.000000 0.125000
vt 0.875000 0.125000
vt 0.125000 1.000000
vt 0.125000 0.875000
vt 0.750000 0.875000
vt 0.500000 1.000000
vt 0.000000 1.000000
vt 0.000000 0.875000
vt 0.125000 0.250000
vt 0.000000 0.500000
vt 0.000000 0.250000
vt 0.125000 0.500000
vt 0.000000 0.750000
vt 0.125000 0.125000
vt 0.000000 0.125000
vt 0.750000 1.000000
vt 0.125000 0.750000
vt 1.000000 0.750000
vt 0.875000 0.000000
vt 0.750000 0.125000
vt 0.750000 0.000000
vt 0.125000 0.000000
vt 0.000000 0.000000
vt 0.500000 0.125000
vt 0.500000 0.000000
vt 0.250000 0.000000
vt 0.250000 0.125000
vt 1.000000 0.000000
vt 0.375000 0.875000
vt 1.000000 1.000000
vn 1.0000 0.0000 0.0000
vn 0.0000 0.0000 1.0000
vn -1.0000 0.0000 0.0000
vn 0.0000 -1.0000 0.0000
vn 0.0000 1.0000 0.0000
vn 0.0000 0.0000 -1.0000
usemtl Material.003
s off
f 2/1/1 3/2/1 1/3/1
f 4/4/2 7/5/2 3/2/2
f 5/6/3 7/5/3 8/7/3
f 10/8/2 5/6/2 11/9/2
f 7/5/4 1/10/4 3/11/4
f 4/12/5 6/13/5 8/7/5
f 9/14/4 1/10/4 7/5/4
f 1/15/6 11/9/6 6/13/6
f 2/1/1 4/4/1 3/2/1
f 4/4/2 8/7/2 7/5/2
f 6/13/3 5/6/3 8/7/3
f 6/13/6 2/16/6 1/15/6
f 5/6/2 10/17/2 9/14/2
f 4/12/5 2/18/5 6/13/5
f 39/19/6 35/20/6 45/21/6
f 40/22/6 25/23/6 42/24/6
f 24/25/6 36/26/6 38/27/6
f 20/28/6 37/29/6 36/26/6
f 47/30/6 38/27/6 52/31/6
f 42/24/6 29/32/6 44/33/6
f 43/34/6 18/35/6 40/22/6
f 44/33/6 15/36/6 41/37/6
f 32/38/6 19/39/6 23/40/6
f 30/41/6 22/42/6 19/39/6
f 51/43/6 23/40/6 46/44/6
f 45/21/6 28/45/6 43/34/6
f 31/46/6 41/37/6 22/42/6
f 21/47/6 45/21/6 37/29/6
f 34/48/6 50/49/6 27/50/6
f 33/51/6 46/44/6 13/52/6
f 27/50/6 48/53/6 17/54/6
f 26/55/6 51/43/6 33/51/6
f 17/54/6 49/56/6 26/55/6
f 14/57/6 52/31/6 34/48/6
f 5/6/2 9/14/2 7/5/2
f 10/8/2 12/58/2 5/6/2
f 9/14/2 10/17/2 1/10/2
f 1/15/2 10/8/2 11/9/2
f 6/13/2 11/9/2 5/6/2
f 39/19/6 16/59/6 35/20/6
f 40/22/6 18/35/6 25/23/6
f 24/25/6 20/28/6 36/26/6
f 20/28/6 21/47/6 37/29/6
f 47/30/6 24/25/6 38/27/6
f 42/24/6 25/23/6 29/32/6
f 43/34/6 28/45/6 18/35/6
f 44/33/6 29/32/6 15/36/6
f 32/38/6 30/41/6 19/39/6
f 30/41/6 31/46/6 22/42/6
f 51/43/6 32/38/6 23/40/6
f 45/21/6 35/20/6 28/45/6
f 31/46/6 44/33/6 41/37/6
f 21/47/6 39/19/6 45/21/6
f 34/48/6 52/31/6 50/49/6
f 33/51/6 51/43/6 46/44/6
f 27/50/6 50/49/6 48/53/6
f 26/55/6 49/56/6 51/43/6
f 17/54/6 48/53/6 49/56/6
f 14/57/6 47/30/6 52/31/6
o 立方体.001_立方体.007
v 0.040017 -0.043396 -0.029146
v 0.040017 0.043396 -0.029146
v 0.040017 -0.043396 0.006576
v 0.040017 0.043396 0.006576
v -0.040017 -0.043396 -0.029146
v -0.040017 0.043396 -0.029146
v -0.040017 -0.043396 0.006576
v -0.040017 0.043396 0.006576
v -0.040017 -0.043396 -0.029146
v 0.000000 -0.043396 -0.029146
v -0.040017 -0.043396 -0.029146
v 0.000000 -0.043396 -0.029146
v 0.155158 -0.155158 -0.009816
v -0.155158 -0.155158 -0.009816
v 0.155158 0.155158 -0.009816
v -0.155158 0.155158 -0.009816
v 0.000000 -0.155158 -0.009816
v 0.000000 0.155158 -0.009816
v 0.155158 0.000000 -0.009816
v -0.155158 0.000000 -0.009816
v -0.155158 0.077579 -0.009816
v 0.155158 0.077579 -0.009816
v 0.155158 -0.077579 -0.009816
v -0.155158 -0.077579 -0.009816
v 0.077579 0.155158 -0.009816
v 0.077579 -0.155158 -0.009816
v -0.077579 -0.155158 -0.009816
v -0.077579 0.155158 -0.009816
v 0.116368 0.155158 -0.009816
v 0.116368 0.000000 -0.009816
v 0.116368 0.077579 -0.009816
v 0.116368 -0.077579 -0.009816
v 0.116368 -0.155158 -0.009816
v -0.116368 -0.155158 -0.009816
v -0.116368 0.155158 -0.009816
v -0.116368 0.000000 -0.009816
v -0.116368 0.077579 -0.009816
v -0.116368 -0.077579 -0.009816
v -0.155158 0.116368 -0.009816
v 0.000000 0.116368 -0.009816
v 0.155158 0.116368 -0.009816
v 0.077579 0.116368 -0.009816
v -0.077579 0.116368 -0.009816
v 0.116368 0.116368 -0.009816
v -0.116368 0.116368 -0.009816
v 0.155158 -0.116368 -0.009816
v -0.155158 -0.116368 -0.009816
v 0.000000 -0.116368 -0.009816
v 0.077579 -0.116368 -0.009816
v -0.077579 -0.116368 -0.009816
v 0.116368 -0.116368 -0.009816
v -0.116368 -0.116368 -0.009816
vt 0.625000 0.000000
vt 0.375000 0.250000
vt 0.375000 0.000000
vt 0.625000 0.250000
vt 0.375000 0.500000
vt 0.375000 0.750000
vt 0.625000 0.500000
vt 0.375000 0.875000
vt 0.375000 0.750000
vt 0.125000 0.750000
vt 0.125000 0.500000
vt 0.875000 0.500000
vt 0.625000 0.750000
vt 0.375000 0.750000
vt 0.375000 1.000000
vt 0.625000 1.000000
vt 0.250000 0.750000
vt 0.875000 0.750000
vt 1.000000 0.875000
vt 0.875000 1.000000
vt 0.875000 0.875000
vt 0.500000 0.875000
vt 0.250000 1.000000
vt 0.250000 0.875000
vt 1.000000 0.250000
vt 0.875000 0.500000
vt 0.875000 0.250000
vt 1.000000 0.500000
vt 0.875000 0.750000
vt 1.000000 0.125000
vt 0.875000 0.125000
vt 0.125000 1.000000
vt 0.125000 0.875000
vt 0.750000 0.875000
vt 0.500000 1.000000
vt 0.000000 1.000000
vt 0.000000 0.875000
vt 0.125000 0.250000
vt 0.000000 0.500000
vt 0.000000 0.250000
vt 0.125000 0.500000
vt 0.000000 0.750000
vt 0.125000 0.125000
vt 0.000000 0.125000
vt 0.750000 1.000000
vt 0.125000 0.750000
vt 1.000000 0.750000
vt 0.875000 0.000000
vt 0.750000 0.125000
vt 0.750000 0.000000
vt 0.125000 0.000000
vt 0.000000 0.000000
vt 0.500000 0.125000
vt 0.500000 0.000000
vt 0.250000 0.000000
vt 0.250000 0.125000
vt 1.000000 0.000000
vt 0.375000 0.875000
vt 1.000000 1.000000
vn 1.0000 0.0000 0.0000
vn 0.0000 0.0000 1.0000
vn -1.0000 0.0000 0.0000
vn 0.0000 -1.0000 0.0000
vn 0.0000 1.0000 0.0000
vn 0.0000 0.0000 -1.0000
usemtl Material.012
s off
f 54/60/7 55/61/7 53/62/7
f 56/63/8 59/64/8 55/61/8
f 57/65/9 59/64/9 60/66/9
f 62/67/8 57/65/8 63/68/8
f 59/64/10 53/69/10 55/70/10
f 56/71/11 58/72/11 60/66/11
f 61/73/10 53/69/10 59/64/10
f 53/74/12 63/68/12 58/72/12
f 54/60/7 56/63/7 55/61/7
f 56/63/8 60/66/8 59/64/8
f 58/72/9 57/65/9 60/66/9
f 58/72/12 54/75/12 53/74/12
f 57/65/8 62/76/8 61/73/8
f 56/71/11 54/77/11 58/72/11
f 91/78/12 87/79/12 97/80/12
f 92/81/12 77/82/12 94/83/12
f 76/84/12 88/85/12 90/86/12
f 72/87/12 89/88/12 88/85/12
f 99/89/12 90/86/12 104/90/12
f 94/83/12 81/91/12 96/92/12
f 95/93/12 70/94/12 92/81/12
f 96/92/12 67/95/12 93/96/12
f 84/97/12 71/98/12 75/99/12
f 82/100/12 74/101/12 71/98/12
f 103/102/12 75/99/12 98/103/12
f 97/80/12 80/104/12 95/93/12
f 83/105/12 93/96/12 74/101/12
f 73/106/12 97/80/12 89/88/12
f 86/107/12 102/108/12 79/109/12
f 85/110/12 98/103/12 65/111/12
f 79/109/12 100/112/12 69/113/12
f 78/114/12 103/102/12 85/110/12
f 69/113/12 101/115/12 78/114/12
f 66/116/12 104/90/12 86/107/12
f 57/65/8 61/73/8 59/64/8
f 62/67/8 64/117/8 57/65/8
f 61/73/8 62/76/8 53/69/8
f 53/74/8 62/67/8 63/68/8
f 58/72/8 63/68/8 57/65/8
f 91/78/12 68/118/12 87/79/12
f 92/81/12 70/94/12 77/82/12
f 76/84/12 72/87/12 88/85/12
f 72/87/12 73/106/12 89/88/12
f 99/89/12 76/84/12 90/86/12
f 94/83/12 77/82/12 81/91/12
f 95/93/12 80/104/12 70/94/12
f 96/92/12 81/91/12 67/95/12
f 84/97/12 82/100/12 71/98/12
f 82/100/12 83/105/12 74/101/12
f 103/102/12 84/97/12 75/99/12
f 97/80/12 87/79/12 80/104/12
f 83/105/12 96/92/12 93/96/12
f 73/106/12 91/78/12 97/80/12
f 86/107/12 104/90/12 102/108/12
f 85/110/12 103/102/12 98/103/12
f 79/109/12 102/108/12 100/112/12
f 78/114/12 101/115/12 103/102/12
f 69/113/12 100/112/12 101/115/12
f 66/116/12 99/89/12 104/90/12
