# Blender v3.1.2 OBJ File: ''
# www.blender.org
mtllib stage.mtl
o 平面
v 60.366600 -1.138192 -2.134321
v 0.359465 -0.214508 -2.784253
v 60.301689 -1.137193 3.860558
v 0.294550 -0.213509 3.210626
v 4.621292 -0.326882 -2.152515
v 4.630531 0.273356 -2.152515
v 4.614792 -0.326782 -1.552242
v 4.624031 0.273456 -1.552242
v 4.021088 -0.317643 -2.159016
v 4.030327 0.282595 -2.159016
v 4.014587 -0.317543 -1.558743
v 4.023827 0.282695 -1.558743
v 8.268484 -0.383023 -2.113014
v 8.277723 0.217215 -2.113014
v 8.261984 -0.382923 -1.512741
v 8.271223 0.217315 -1.512741
v 7.668280 -0.373784 -2.119515
v 7.677519 0.226454 -2.119515
v 7.661779 -0.373684 -1.519241
v 7.671019 0.226554 -1.519241
v 11.995388 -0.440391 -2.072649
v 12.004627 0.159847 -2.072649
v 11.988888 -0.440291 -1.472376
v 11.998127 0.159947 -1.472376
v 11.395184 -0.431152 -2.079150
v 11.404423 0.169086 -2.079150
v 11.388683 -0.431052 -1.478877
v 11.397923 0.169186 -1.478877
v 16.919155 -0.516182 -2.019322
v 16.928394 0.084055 -2.019322
v 16.912655 -0.516082 -1.419049
v 16.921894 0.084156 -1.419049
v 16.318953 -0.506943 -2.025823
v 16.328192 0.093294 -2.025823
v 16.312452 -0.506843 -1.425550
v 16.321692 0.093394 -1.425550
v 22.401300 -0.600568 -1.959947
v 22.410542 -0.000330 -1.959947
v 22.394802 -0.600468 -1.359674
v 22.404041 -0.000230 -1.359674
v 21.801098 -0.591329 -1.966448
v 21.810337 0.008908 -1.966448
v 21.794598 -0.591229 -1.366175
v 21.803837 0.009008 -1.366175
v 27.492609 -0.678938 -1.904806
v 27.501848 -0.078700 -1.904806
v 27.486109 -0.678838 -1.304532
v 27.495348 -0.078600 -1.304532
v 26.892406 -0.669699 -1.911306
v 26.901646 -0.069461 -1.911306
v 26.885906 -0.669599 -1.311033
v 26.895145 -0.069361 -1.311033
v 33.680870 -0.774193 -1.837783
v 33.690109 -0.173956 -1.837783
v 33.674370 -0.774093 -1.237510
v 33.683613 -0.173856 -1.237510
v 33.080669 -0.764954 -1.844284
v 33.089909 -0.164717 -1.844284
v 33.074169 -0.764854 -1.244011
v 33.083408 -0.164617 -1.244011
v 27.492609 -0.678938 -1.904806
v 27.501848 -0.078700 -1.904806
v 27.486109 -0.678838 -1.304532
v 27.495348 -0.078600 -1.304532
v 26.892406 -0.669699 -1.911306
v 26.901646 -0.069461 -1.911306
v 26.885906 -0.669599 -1.311033
v 26.895145 -0.069361 -1.311033
v 41.699833 -0.897629 -1.750934
v 41.709072 -0.297391 -1.750934
v 41.693333 -0.897529 -1.150660
v 41.702572 -0.297291 -1.150660
v 41.099628 -0.888390 -1.757434
v 41.108868 -0.288152 -1.757434
v 41.093128 -0.888290 -1.157161
v 41.102367 -0.288052 -1.157161
v 49.956619 -1.024724 -1.661507
v 49.965858 -0.424487 -1.661507
v 49.950119 -1.024624 -1.061234
v 49.959358 -0.424387 -1.061234
v 49.356419 -1.015485 -1.668008
v 49.365658 -0.415248 -1.668008
v 49.349918 -1.015385 -1.067735
v 49.359158 -0.415148 -1.067735
v 6.040310 -0.348725 1.968644
v 6.049549 0.251513 1.968644
v 6.033812 -0.348625 2.568917
v 6.043051 0.251613 2.568917
v 5.440107 -0.339486 1.962143
v 5.449347 0.260752 1.962143
v 5.433609 -0.339386 2.562417
v 5.442848 0.260852 2.562417
v 9.897793 -0.408103 2.010423
v 9.907032 0.192135 2.010423
v 9.891294 -0.408003 2.610696
v 9.900534 0.192235 2.610696
v 9.297588 -0.398864 2.003922
v 9.306828 0.201374 2.003922
v 9.291090 -0.398764 2.604196
v 9.300329 0.201474 2.604196
v 14.450591 -0.478184 2.059732
v 14.459830 0.122054 2.059732
v 14.444091 -0.478083 2.660006
v 14.453330 0.122154 2.660006
v 13.850388 -0.468945 2.053231
v 13.859627 0.131293 2.053231
v 13.843889 -0.468845 2.653505
v 13.853128 0.131393 2.653505
v 19.542149 -0.556558 2.114877
v 19.551388 0.043680 2.114877
v 19.535648 -0.556457 2.715150
v 19.544888 0.043780 2.715150
v 18.941944 -0.547319 2.108376
v 18.951183 0.052919 2.108376
v 18.935444 -0.547219 2.708649
v 18.944683 0.053019 2.708649
v 24.479553 -0.632558 2.168352
v 24.488792 -0.032321 2.168352
v 24.473053 -0.632458 2.768625
v 24.482292 -0.032221 2.768625
v 23.879351 -0.623320 2.161851
v 23.888590 -0.023082 2.161851
v 23.872850 -0.623219 2.762125
v 23.882090 -0.022982 2.762125
v 30.270298 -0.721694 2.231069
v 30.279537 -0.121457 2.231069
v 30.263798 -0.721594 2.831342
v 30.273037 -0.121357 2.831342
v 29.670095 -0.712456 2.224568
v 29.679335 -0.112218 2.224568
v 29.663595 -0.712356 2.824841
v 29.672834 -0.112118 2.824841
v 45.411171 -0.954757 2.395053
v 45.420410 -0.354519 2.395053
v 45.404671 -0.954657 2.995327
v 45.413910 -0.354419 2.995327
v 44.810970 -0.945518 2.388552
v 44.820210 -0.345281 2.388552
v 44.804470 -0.945418 2.988826
v 44.813709 -0.345180 2.988826
v 54.553848 -1.095489 2.494073
v 54.563087 -0.495251 2.494073
v 54.547348 -1.095389 3.094347
v 54.556587 -0.495151 3.094347
v 53.953644 -1.086250 2.487573
v 53.962883 -0.486012 2.487573
v 53.947144 -1.086150 3.087846
v 53.956383 -0.485912 3.087846
v 36.815937 -0.822451 2.301962
v 36.825176 -0.222213 2.301962
v 36.809437 -0.822351 2.902236
v 36.818680 -0.222113 2.902236
v 36.215736 -0.813212 2.295461
v 36.224976 -0.212975 2.295461
v 36.209236 -0.813112 2.895735
v 36.218475 -0.212874 2.895735
v 59.513737 -1.129310 2.411453
v 59.698692 2.174060 2.411453
v 59.513741 -1.129310 2.123786
v 59.698692 2.174060 2.123786
v 59.901230 -1.151006 2.411453
v 60.086189 2.152365 2.411453
v 59.901234 -1.151006 2.123786
v 60.086189 2.152365 2.123786
v 59.513748 -1.129311 -0.756886
v 59.698700 2.174060 -0.756886
v 59.513744 -1.129311 -1.044553
v 59.698700 2.174060 -1.044553
v 59.901241 -1.151006 -0.756886
v 60.086197 2.152364 -0.756886
v 59.901241 -1.151006 -1.044552
v 60.086197 2.152364 -1.044553
v 59.697937 2.160487 2.347287
v 59.698059 2.162634 -0.961257
v 59.681854 1.873270 2.347100
v 59.681980 1.875417 -0.961444
v 60.085434 2.138792 2.347287
v 60.085556 2.140939 -0.961256
v 60.069351 1.851574 2.347100
v 60.069473 1.853721 -0.961443
v 60.069412 1.852648 0.692828
vt 1.000000 0.000000
vt 0.000000 1.000000
vt 0.000000 0.000000
vt 1.000000 1.000000
vt 0.625000 0.000000
vt 0.375000 0.250000
vt 0.375000 0.000000
vt 0.625000 0.250000
vt 0.375000 0.500000
vt 0.625000 0.500000
vt 0.375000 0.750000
vt 0.625000 0.750000
vt 0.375000 1.000000
vt 0.125000 0.750000
vt 0.125000 0.500000
vt 0.875000 0.500000
vt 0.625000 0.000000
vt 0.375000 0.250000
vt 0.375000 0.000000
vt 0.625000 0.250000
vt 0.375000 0.500000
vt 0.625000 0.500000
vt 0.375000 0.750000
vt 0.625000 0.750000
vt 0.375000 1.000000
vt 0.125000 0.750000
vt 0.125000 0.500000
vt 0.875000 0.500000
vt 0.625000 0.000000
vt 0.375000 0.250000
vt 0.375000 0.000000
vt 0.625000 0.250000
vt 0.375000 0.500000
vt 0.625000 0.500000
vt 0.375000 0.750000
vt 0.625000 0.750000
vt 0.375000 1.000000
vt 0.125000 0.750000
vt 0.125000 0.500000
vt 0.875000 0.500000
vt 0.625000 0.000000
vt 0.375000 0.250000
vt 0.375000 0.000000
vt 0.625000 0.250000
vt 0.375000 0.500000
vt 0.625000 0.500000
vt 0.375000 0.750000
vt 0.625000 0.750000
vt 0.375000 1.000000
vt 0.125000 0.750000
vt 0.125000 0.500000
vt 0.875000 0.500000
vt 0.625000 0.000000
vt 0.375000 0.250000
vt 0.375000 0.000000
vt 0.625000 0.250000
vt 0.375000 0.500000
vt 0.625000 0.500000
vt 0.375000 0.750000
vt 0.625000 0.750000
vt 0.375000 1.000000
vt 0.125000 0.750000
vt 0.125000 0.500000
vt 0.875000 0.500000
vt 0.625000 0.000000
vt 0.375000 0.250000
vt 0.375000 0.000000
vt 0.625000 0.250000
vt 0.375000 0.500000
vt 0.625000 0.500000
vt 0.375000 0.750000
vt 0.625000 0.750000
vt 0.375000 1.000000
vt 0.125000 0.750000
vt 0.125000 0.500000
vt 0.875000 0.500000
vt 0.625000 0.000000
vt 0.375000 0.250000
vt 0.375000 0.000000
vt 0.625000 0.250000
vt 0.375000 0.500000
vt 0.625000 0.500000
vt 0.375000 0.750000
vt 0.625000 0.750000
vt 0.375000 1.000000
vt 0.125000 0.750000
vt 0.125000 0.500000
vt 0.875000 0.500000
vt 0.625000 0.000000
vt 0.375000 0.250000
vt 0.375000 0.000000
vt 0.625000 0.250000
vt 0.375000 0.500000
vt 0.625000 0.500000
vt 0.375000 0.750000
vt 0.625000 0.750000
vt 0.375000 1.000000
vt 0.125000 0.750000
vt 0.125000 0.500000
vt 0.875000 0.500000
vt 0.625000 0.000000
vt 0.375000 0.250000
vt 0.375000 0.000000
vt 0.625000 0.250000
vt 0.375000 0.500000
vt 0.625000 0.500000
vt 0.375000 0.750000
vt 0.625000 0.750000
vt 0.375000 1.000000
vt 0.125000 0.750000
vt 0.125000 0.500000
vt 0.875000 0.500000
vt 0.625000 0.000000
vt 0.375000 0.250000
vt 0.375000 0.000000
vt 0.625000 0.250000
vt 0.375000 0.500000
vt 0.625000 0.500000
vt 0.375000 0.750000
vt 0.625000 0.750000
vt 0.375000 1.000000
vt 0.125000 0.750000
vt 0.125000 0.500000
vt 0.875000 0.500000
vt 0.625000 0.000000
vt 0.375000 0.250000
vt 0.375000 0.000000
vt 0.625000 0.250000
vt 0.375000 0.500000
vt 0.625000 0.500000
vt 0.375000 0.750000
vt 0.625000 0.750000
vt 0.375000 1.000000
vt 0.125000 0.750000
vt 0.125000 0.500000
vt 0.875000 0.500000
vt 0.625000 0.000000
vt 0.375000 0.250000
vt 0.375000 0.000000
vt 0.625000 0.250000
vt 0.375000 0.500000
vt 0.625000 0.500000
vt 0.375000 0.750000
vt 0.625000 0.750000
vt 0.375000 1.000000
vt 0.125000 0.750000
vt 0.125000 0.500000
vt 0.875000 0.500000
vt 0.625000 0.000000
vt 0.375000 0.250000
vt 0.375000 0.000000
vt 0.625000 0.250000
vt 0.375000 0.500000
vt 0.625000 0.500000
vt 0.375000 0.750000
vt 0.625000 0.750000
vt 0.375000 1.000000
vt 0.125000 0.750000
vt 0.125000 0.500000
vt 0.875000 0.500000
vt 0.625000 0.000000
vt 0.375000 0.250000
vt 0.375000 0.000000
vt 0.625000 0.250000
vt 0.375000 0.500000
vt 0.625000 0.500000
vt 0.375000 0.750000
vt 0.625000 0.750000
vt 0.375000 1.000000
vt 0.125000 0.750000
vt 0.125000 0.500000
vt 0.875000 0.500000
vt 0.625000 0.000000
vt 0.375000 0.250000
vt 0.375000 0.000000
vt 0.625000 0.250000
vt 0.375000 0.500000
vt 0.625000 0.500000
vt 0.375000 0.750000
vt 0.625000 0.750000
vt 0.375000 1.000000
vt 0.125000 0.750000
vt 0.125000 0.500000
vt 0.875000 0.500000
vt 0.625000 0.000000
vt 0.375000 0.250000
vt 0.375000 0.000000
vt 0.625000 0.250000
vt 0.375000 0.500000
vt 0.625000 0.500000
vt 0.375000 0.750000
vt 0.625000 0.750000
vt 0.375000 1.000000
vt 0.125000 0.750000
vt 0.125000 0.500000
vt 0.875000 0.500000
vt 0.625000 0.000000
vt 0.375000 0.250000
vt 0.375000 0.000000
vt 0.625000 0.250000
vt 0.375000 0.500000
vt 0.625000 0.500000
vt 0.375000 0.750000
vt 0.625000 0.750000
vt 0.375000 1.000000
vt 0.125000 0.750000
vt 0.125000 0.500000
vt 0.875000 0.500000
vt 0.625000 0.000000
vt 0.375000 0.250000
vt 0.375000 0.000000
vt 0.625000 0.250000
vt 0.375000 0.500000
vt 0.625000 0.500000
vt 0.375000 0.750000
vt 0.625000 0.750000
vt 0.375000 1.000000
vt 0.125000 0.750000
vt 0.125000 0.500000
vt 0.875000 0.500000
vt 0.625000 0.000000
vt 0.375000 0.250000
vt 0.375000 0.000000
vt 0.625000 0.250000
vt 0.375000 0.500000
vt 0.625000 0.500000
vt 0.375000 0.750000
vt 0.625000 0.750000
vt 0.375000 1.000000
vt 0.125000 0.750000
vt 0.125000 0.500000
vt 0.875000 0.500000
vt 0.625000 1.000000
vt 0.875000 0.750000
vt 0.625000 1.000000
vt 0.875000 0.750000
vt 0.625000 1.000000
vt 0.875000 0.750000
vt 0.625000 1.000000
vt 0.875000 0.750000
vt 0.625000 1.000000
vt 0.875000 0.750000
vt 0.625000 1.000000
vt 0.875000 0.750000
vt 0.625000 1.000000
vt 0.875000 0.750000
vt 0.625000 1.000000
vt 0.875000 0.750000
vt 0.625000 1.000000
vt 0.875000 0.750000
vt 0.625000 1.000000
vt 0.875000 0.750000
vt 0.625000 1.000000
vt 0.875000 0.750000
vt 0.625000 1.000000
vt 0.875000 0.750000
vt 0.625000 1.000000
vt 0.875000 0.750000
vt 0.625000 1.000000
vt 0.875000 0.750000
vt 0.625000 1.000000
vt 0.875000 0.750000
vt 0.625000 1.000000
vt 0.875000 0.750000
vt 0.625000 1.000000
vt 0.875000 0.750000
vt 0.625000 1.000000
vt 0.875000 0.750000
vt 0.625000 1.000000
vt 0.875000 0.750000
vt 0.625000 0.000000
vt 0.375000 0.250000
vt 0.375000 0.000000
vt 0.625000 0.500000
vt 0.375000 0.500000
vt 0.625000 0.750000
vt 0.375000 0.750000
vt 0.375000 1.000000
vt 0.125000 0.500000
vt 0.125000 0.750000
vt 0.875000 0.500000
vt 0.625000 0.000000
vt 0.375000 0.250000
vt 0.375000 0.000000
vt 0.625000 0.500000
vt 0.375000 0.500000
vt 0.625000 0.750000
vt 0.375000 0.750000
vt 0.375000 1.000000
vt 0.125000 0.500000
vt 0.125000 0.750000
vt 0.875000 0.500000
vt 0.625000 0.000000
vt 0.375000 0.250000
vt 0.375000 0.000000
vt 0.625000 0.250000
vt 0.375000 0.500000
vt 0.375000 0.750000
vt 0.500000 0.500000
vt 0.625000 0.500000
vt 0.625000 0.750000
vt 0.375000 1.000000
vt 0.125000 0.750000
vt 0.125000 0.500000
vt 0.875000 0.500000
vt 0.625000 1.000000
vt 0.875000 0.750000
vt 0.625000 0.250000
vt 0.625000 1.000000
vt 0.875000 0.750000
vt 0.625000 0.250000
vt 0.625000 1.000000
vt 0.875000 0.750000
vn 0.0154 0.9999 -0.0000
vn 0.9998 -0.0154 0.0108
vn -0.0108 0.0002 0.9999
vn -0.9998 0.0154 -0.0108
vn 0.0108 -0.0002 -0.9999
vn -0.0154 -0.9999 -0.0000
vn -0.9984 0.0559 -0.0000
vn 0.0000 0.0000 -1.0000
vn 0.9984 -0.0559 0.0000
vn -0.0000 -0.0000 1.0000
vn -0.0559 -0.9984 -0.0000
vn 0.0559 0.9984 0.0000
vn -0.0559 -0.9984 -0.0006
vn 0.0559 0.9984 0.0007
vn -0.0000 -0.0006 1.0000
vn 0.0000 0.0006 -1.0000
vn 0.0559 0.9984 0.0006
usemtl マテリアル
s off
f 2/1/1 3/2/1 1/3/1
f 2/1/1 4/4/1 3/2/1
f 6/5/2 7/6/2 5/7/2
f 8/8/3 11/9/3 7/6/3
f 12/10/4 9/11/4 11/9/4
f 10/12/5 5/13/5 9/11/5
f 11/9/6 5/14/6 7/15/6
f 8/16/1 10/12/1 12/10/1
f 14/17/2 15/18/2 13/19/2
f 16/20/3 19/21/3 15/18/3
f 20/22/4 17/23/4 19/21/4
f 18/24/5 13/25/5 17/23/5
f 19/21/6 13/26/6 15/27/6
f 16/28/1 18/24/1 20/22/1
f 22/29/2 23/30/2 21/31/2
f 24/32/3 27/33/3 23/30/3
f 28/34/4 25/35/4 27/33/4
f 26/36/5 21/37/5 25/35/5
f 27/33/6 21/38/6 23/39/6
f 24/40/1 26/36/1 28/34/1
f 30/41/2 31/42/2 29/43/2
f 32/44/3 35/45/3 31/42/3
f 36/46/4 33/47/4 35/45/4
f 34/48/5 29/49/5 33/47/5
f 35/45/6 29/50/6 31/51/6
f 32/52/1 34/48/1 36/46/1
f 38/53/2 39/54/2 37/55/2
f 40/56/3 43/57/3 39/54/3
f 44/58/4 41/59/4 43/57/4
f 42/60/5 37/61/5 41/59/5
f 43/57/6 37/62/6 39/63/6
f 40/64/1 42/60/1 44/58/1
f 46/65/2 47/66/2 45/67/2
f 48/68/3 51/69/3 47/66/3
f 52/70/4 49/71/4 51/69/4
f 50/72/5 45/73/5 49/71/5
f 51/69/6 45/74/6 47/75/6
f 48/76/1 50/72/1 52/70/1
f 54/77/2 55/78/2 53/79/2
f 56/80/3 59/81/3 55/78/3
f 60/82/4 57/83/4 59/81/4
f 58/84/5 53/85/5 57/83/5
f 59/81/6 53/86/6 55/87/6
f 56/88/1 58/84/1 60/82/1
f 62/89/2 63/90/2 61/91/2
f 64/92/3 67/93/3 63/90/3
f 68/94/4 65/95/4 67/93/4
f 66/96/5 61/97/5 65/95/5
f 67/93/6 61/98/6 63/99/6
f 64/100/1 66/96/1 68/94/1
f 70/101/2 71/102/2 69/103/2
f 72/104/3 75/105/3 71/102/3
f 76/106/4 73/107/4 75/105/4
f 74/108/5 69/109/5 73/107/5
f 75/105/6 69/110/6 71/111/6
f 72/112/1 74/108/1 76/106/1
f 78/113/2 79/114/2 77/115/2
f 80/116/3 83/117/3 79/114/3
f 84/118/4 81/119/4 83/117/4
f 82/120/5 77/121/5 81/119/5
f 83/117/6 77/122/6 79/123/6
f 80/124/1 82/120/1 84/118/1
f 86/125/2 87/126/2 85/127/2
f 88/128/3 91/129/3 87/126/3
f 92/130/4 89/131/4 91/129/4
f 90/132/5 85/133/5 89/131/5
f 91/129/6 85/134/6 87/135/6
f 88/136/1 90/132/1 92/130/1
f 94/137/2 95/138/2 93/139/2
f 96/140/3 99/141/3 95/138/3
f 100/142/4 97/143/4 99/141/4
f 98/144/5 93/145/5 97/143/5
f 99/141/6 93/146/6 95/147/6
f 96/148/1 98/144/1 100/142/1
f 102/149/2 103/150/2 101/151/2
f 104/152/3 107/153/3 103/150/3
f 108/154/4 105/155/4 107/153/4
f 106/156/5 101/157/5 105/155/5
f 107/153/6 101/158/6 103/159/6
f 104/160/1 106/156/1 108/154/1
f 110/161/2 111/162/2 109/163/2
f 112/164/3 115/165/3 111/162/3
f 116/166/4 113/167/4 115/165/4
f 114/168/5 109/169/5 113/167/5
f 115/165/6 109/170/6 111/171/6
f 112/172/1 114/168/1 116/166/1
f 118/173/2 119/174/2 117/175/2
f 120/176/3 123/177/3 119/174/3
f 124/178/4 121/179/4 123/177/4
f 122/180/5 117/181/5 121/179/5
f 123/177/6 117/182/6 119/183/6
f 120/184/1 122/180/1 124/178/1
f 126/185/2 127/186/2 125/187/2
f 128/188/3 131/189/3 127/186/3
f 132/190/4 129/191/4 131/189/4
f 130/192/5 125/193/5 129/191/5
f 131/189/6 125/194/6 127/195/6
f 128/196/1 130/192/1 132/190/1
f 134/197/2 135/198/2 133/199/2
f 136/200/3 139/201/3 135/198/3
f 140/202/4 137/203/4 139/201/4
f 138/204/5 133/205/5 137/203/5
f 139/201/6 133/206/6 135/207/6
f 136/208/1 138/204/1 140/202/1
f 142/209/2 143/210/2 141/211/2
f 144/212/3 147/213/3 143/210/3
f 148/214/4 145/215/4 147/213/4
f 146/216/5 141/217/5 145/215/5
f 147/213/6 141/218/6 143/219/6
f 144/220/1 146/216/1 148/214/1
f 150/221/2 151/222/2 149/223/2
f 152/224/3 155/225/3 151/222/3
f 156/226/4 153/227/4 155/225/4
f 154/228/5 149/229/5 153/227/5
f 155/225/6 149/230/6 151/231/6
f 152/232/1 154/228/1 156/226/1
f 6/5/2 8/8/2 7/6/2
f 8/8/3 12/10/3 11/9/3
f 12/10/4 10/12/4 9/11/4
f 10/12/5 6/233/5 5/13/5
f 11/9/6 9/11/6 5/14/6
f 8/16/1 6/234/1 10/12/1
f 14/17/2 16/20/2 15/18/2
f 16/20/3 20/22/3 19/21/3
f 20/22/4 18/24/4 17/23/4
f 18/24/5 14/235/5 13/25/5
f 19/21/6 17/23/6 13/26/6
f 16/28/1 14/236/1 18/24/1
f 22/29/2 24/32/2 23/30/2
f 24/32/3 28/34/3 27/33/3
f 28/34/4 26/36/4 25/35/4
f 26/36/5 22/237/5 21/37/5
f 27/33/6 25/35/6 21/38/6
f 24/40/1 22/238/1 26/36/1
f 30/41/2 32/44/2 31/42/2
f 32/44/3 36/46/3 35/45/3
f 36/46/4 34/48/4 33/47/4
f 34/48/5 30/239/5 29/49/5
f 35/45/6 33/47/6 29/50/6
f 32/52/1 30/240/1 34/48/1
f 38/53/2 40/56/2 39/54/2
f 40/56/3 44/58/3 43/57/3
f 44/58/4 42/60/4 41/59/4
f 42/60/5 38/241/5 37/61/5
f 43/57/6 41/59/6 37/62/6
f 40/64/1 38/242/1 42/60/1
f 46/65/2 48/68/2 47/66/2
f 48/68/3 52/70/3 51/69/3
f 52/70/4 50/72/4 49/71/4
f 50/72/5 46/243/5 45/73/5
f 51/69/6 49/71/6 45/74/6
f 48/76/1 46/244/1 50/72/1
f 54/77/2 56/80/2 55/78/2
f 56/80/3 60/82/3 59/81/3
f 60/82/4 58/84/4 57/83/4
f 58/84/5 54/245/5 53/85/5
f 59/81/6 57/83/6 53/86/6
f 56/88/1 54/246/1 58/84/1
f 62/89/2 64/92/2 63/90/2
f 64/92/3 68/94/3 67/93/3
f 68/94/4 66/96/4 65/95/4
f 66/96/5 62/247/5 61/97/5
f 67/93/6 65/95/6 61/98/6
f 64/100/1 62/248/1 66/96/1
f 70/101/2 72/104/2 71/102/2
f 72/104/3 76/106/3 75/105/3
f 76/106/4 74/108/4 73/107/4
f 74/108/5 70/249/5 69/109/5
f 75/105/6 73/107/6 69/110/6
f 72/112/1 70/250/1 74/108/1
f 78/113/2 80/116/2 79/114/2
f 80/116/3 84/118/3 83/117/3
f 84/118/4 82/120/4 81/119/4
f 82/120/5 78/251/5 77/121/5
f 83/117/6 81/119/6 77/122/6
f 80/124/1 78/252/1 82/120/1
f 86/125/2 88/128/2 87/126/2
f 88/128/3 92/130/3 91/129/3
f 92/130/4 90/132/4 89/131/4
f 90/132/5 86/253/5 85/133/5
f 91/129/6 89/131/6 85/134/6
f 88/136/1 86/254/1 90/132/1
f 94/137/2 96/140/2 95/138/2
f 96/140/3 100/142/3 99/141/3
f 100/142/4 98/144/4 97/143/4
f 98/144/5 94/255/5 93/145/5
f 99/141/6 97/143/6 93/146/6
f 96/148/1 94/256/1 98/144/1
f 102/149/2 104/152/2 103/150/2
f 104/152/3 108/154/3 107/153/3
f 108/154/4 106/156/4 105/155/4
f 106/156/5 102/257/5 101/157/5
f 107/153/6 105/155/6 101/158/6
f 104/160/1 102/258/1 106/156/1
f 110/161/2 112/164/2 111/162/2
f 112/164/3 116/166/3 115/165/3
f 116/166/4 114/168/4 113/167/4
f 114/168/5 110/259/5 109/169/5
f 115/165/6 113/167/6 109/170/6
f 112/172/1 110/260/1 114/168/1
f 118/173/2 120/176/2 119/174/2
f 120/176/3 124/178/3 123/177/3
f 124/178/4 122/180/4 121/179/4
f 122/180/5 118/261/5 117/181/5
f 123/177/6 121/179/6 117/182/6
f 120/184/1 118/262/1 122/180/1
f 126/185/2 128/188/2 127/186/2
f 128/188/3 132/190/3 131/189/3
f 132/190/4 130/192/4 129/191/4
f 130/192/5 126/263/5 125/193/5
f 131/189/6 129/191/6 125/194/6
f 128/196/1 126/264/1 130/192/1
f 134/197/2 136/200/2 135/198/2
f 136/200/3 140/202/3 139/201/3
f 140/202/4 138/204/4 137/203/4
f 138/204/5 134/265/5 133/205/5
f 139/201/6 137/203/6 133/206/6
f 136/208/1 134/266/1 138/204/1
f 142/209/2 144/212/2 143/210/2
f 144/212/3 148/214/3 147/213/3
f 148/214/4 146/216/4 145/215/4
f 146/216/5 142/267/5 141/217/5
f 147/213/6 145/215/6 141/218/6
f 144/220/1 142/268/1 146/216/1
f 150/221/2 152/224/2 151/222/2
f 152/224/3 156/226/3 155/225/3
f 156/226/4 154/228/4 153/227/4
f 154/228/5 150/269/5 149/229/5
f 155/225/6 153/227/6 149/230/6
f 152/232/1 150/270/1 154/228/1
f 158/271/7 159/272/7 157/273/7
f 159/272/8 164/274/8 163/275/8
f 163/275/9 162/276/9 161/277/9
f 162/276/10 157/278/10 161/277/10
f 159/279/11 161/277/11 157/280/11
f 160/281/12 162/276/12 164/274/12
f 166/282/7 167/283/7 165/284/7
f 167/283/8 172/285/8 171/286/8
f 171/286/9 170/287/9 169/288/9
f 170/287/10 165/289/10 169/288/10
f 167/290/11 169/288/11 165/291/11
f 168/292/12 170/287/12 172/285/12
f 174/293/7 175/294/7 173/295/7
f 176/296/13 179/297/13 175/294/13
f 177/298/9 181/299/9 180/300/9
f 178/301/14 173/302/14 177/298/14
f 179/297/15 173/303/15 175/304/15
f 176/305/16 178/301/16 180/300/16
f 174/293/7 176/296/7 175/294/7
f 176/296/13 181/299/13 179/297/13
f 180/300/9 178/301/9 177/298/9
f 178/301/17 174/306/17 173/302/17
f 179/297/15 177/298/15 173/303/15
f 176/305/16 174/307/16 178/301/16
f 158/271/7 160/308/7 159/272/7
f 159/272/8 160/308/8 164/274/8
f 163/275/9 164/274/9 162/276/9
f 162/276/10 158/309/10 157/278/10
f 159/279/11 163/275/11 161/277/11
f 160/281/12 158/310/12 162/276/12
f 166/282/7 168/311/7 167/283/7
f 167/283/8 168/311/8 172/285/8
f 171/286/9 172/285/9 170/287/9
f 170/287/10 166/312/10 165/289/10
f 167/290/11 171/286/11 169/288/11
f 168/292/12 166/313/12 170/287/12
f 177/298/9 179/297/9 181/299/9
f 176/296/13 180/300/13 181/299/13
