# Blender v3.1.2 OBJ File: ''
# www.blender.org
mtllib Box.mtl
o 立方体.006
v 1.000000 0.104444 -20.512384
v 1.000000 0.123607 -22.512236
v 1.000000 27.942802 -20.245638
v 1.000000 27.961967 -22.245489
v -1.000000 0.104444 -20.512384
v -1.000000 0.123607 -22.512236
v -1.000000 27.942802 -20.245638
v -1.000000 27.961967 -22.245489
v 1.000000 0.167847 -22.439455
v 1.000000 2.167847 -22.439457
v 1.000000 0.167846 22.439453
v 1.000000 2.167847 22.439449
v -1.000000 0.167847 -22.439455
v -1.000000 2.167847 -22.439457
v -1.000000 0.167846 22.439453
v -1.000000 2.167847 22.439449
v 1.000000 11.529271 -22.439455
v 1.000000 13.529271 -22.439455
v 1.000000 11.529271 22.439457
v 1.000000 13.529271 22.439453
v -1.000000 11.529271 -22.439455
v -1.000000 13.529271 -22.439455
v -1.000000 11.529271 22.439457
v -1.000000 13.529271 22.439453
v 1.000000 0.167847 -22.439455
v 1.000000 2.167847 -22.439457
v 1.000000 0.167846 22.439453
v 1.000000 2.167847 22.439449
v -1.000000 0.167847 -22.439455
v -1.000000 2.167847 -22.439457
v -1.000000 0.167846 22.439453
v -1.000000 2.167847 22.439449
v 1.000000 0.449141 0.870258
v 1.000000 0.468303 -1.129589
v 1.000000 27.513731 1.129589
v 1.000000 27.532894 -0.870258
v -1.000000 0.449141 0.870258
v -1.000000 0.468303 -1.129589
v -1.000000 27.513731 1.129589
v -1.000000 27.532894 -0.870258
v 0.988331 0.475739 0.856441
v 0.988331 0.494678 -1.120075
v 0.988331 27.989260 1.120073
v 0.988331 28.008198 -0.856443
v -0.988331 0.475739 0.856441
v -0.988331 0.494678 -1.120075
v -0.988331 27.989260 1.120073
v -0.988331 28.008198 -0.856443
v 1.000000 0.235775 22.345711
v 1.000000 0.254937 20.345856
v 1.000000 28.074135 22.612457
v 1.000000 28.093296 20.612602
v -1.000000 0.235775 22.345711
v -1.000000 0.254937 20.345856
v -1.000000 28.074135 22.612457
v -1.000000 28.093296 20.612602
v 1.000000 26.086430 -22.439455
v 1.000000 28.086430 -22.439457
v 1.000000 26.086430 22.439457
v 1.000000 28.086430 22.439453
v -1.000000 26.086430 -22.439455
v -1.000000 28.086430 -22.439457
v -1.000000 26.086430 22.439457
v -1.000000 28.086430 22.439453
vt 0.625000 0.000000
vt 0.375000 0.250000
vt 0.375000 0.000000
vt 0.625000 0.250000
vt 0.375000 0.500000
vt 0.625000 0.500000
vt 0.375000 0.750000
vt 0.625000 0.750000
vt 0.375000 1.000000
vt 0.125000 0.750000
vt 0.125000 0.500000
vt 0.875000 0.500000
vt 0.375000 0.000000
vt 0.625000 0.250000
vt 0.375000 0.250000
vt 0.375000 0.500000
vt 0.625000 0.500000
vt 0.375000 0.750000
vt 0.625000 0.750000
vt 0.375000 1.000000
vt 0.125000 0.750000
vt 0.125000 0.500000
vt 0.875000 0.500000
vt 0.375000 0.000000
vt 0.625000 0.250000
vt 0.375000 0.250000
vt 0.375000 0.500000
vt 0.625000 0.500000
vt 0.375000 0.750000
vt 0.625000 0.750000
vt 0.375000 1.000000
vt 0.125000 0.750000
vt 0.125000 0.500000
vt 0.875000 0.500000
vt 0.375000 0.000000
vt 0.625000 0.250000
vt 0.375000 0.250000
vt 0.375000 0.500000
vt 0.625000 0.500000
vt 0.375000 0.750000
vt 0.625000 0.750000
vt 0.375000 1.000000
vt 0.125000 0.750000
vt 0.125000 0.500000
vt 0.875000 0.500000
vt 0.625000 0.000000
vt 0.375000 0.250000
vt 0.375000 0.000000
vt 0.625000 0.250000
vt 0.375000 0.500000
vt 0.625000 0.500000
vt 0.375000 0.750000
vt 0.625000 0.750000
vt 0.375000 1.000000
vt 0.125000 0.750000
vt 0.125000 0.500000
vt 0.875000 0.500000
vt 0.625000 0.000000
vt 0.375000 0.250000
vt 0.375000 0.000000
vt 0.625000 0.250000
vt 0.375000 0.500000
vt 0.625000 0.500000
vt 0.375000 0.750000
vt 0.625000 0.750000
vt 0.375000 1.000000
vt 0.125000 0.750000
vt 0.125000 0.500000
vt 0.875000 0.500000
vt 0.625000 0.000000
vt 0.375000 0.250000
vt 0.375000 0.000000
vt 0.625000 0.250000
vt 0.375000 0.500000
vt 0.625000 0.500000
vt 0.375000 0.750000
vt 0.625000 0.750000
vt 0.375000 1.000000
vt 0.125000 0.750000
vt 0.125000 0.500000
vt 0.875000 0.500000
vt 0.375000 0.000000
vt 0.625000 0.250000
vt 0.375000 0.250000
vt 0.375000 0.500000
vt 0.625000 0.500000
vt 0.375000 0.750000
vt 0.625000 0.750000
vt 0.375000 1.000000
vt 0.125000 0.750000
vt 0.125000 0.500000
vt 0.875000 0.500000
vt 0.625000 1.000000
vt 0.875000 0.750000
vt 0.625000 0.000000
vt 0.625000 1.000000
vt 0.875000 0.750000
vt 0.625000 0.000000
vt 0.625000 1.000000
vt 0.875000 0.750000
vt 0.625000 0.000000
vt 0.625000 1.000000
vt 0.875000 0.750000
vt 0.625000 1.000000
vt 0.875000 0.750000
vt 0.625000 1.000000
vt 0.875000 0.750000
vt 0.625000 1.000000
vt 0.875000 0.750000
vt 0.625000 0.000000
vt 0.625000 1.000000
vt 0.875000 0.750000
vn 1.0000 0.0000 0.0000
vn 0.0000 1.0000 0.0096
vn -1.0000 0.0000 0.0000
vn 0.0000 -1.0000 -0.0096
vn 0.0000 -0.0096 1.0000
vn 0.0000 0.0096 -1.0000
vn 0.0000 0.0000 1.0000
vn 0.0000 -0.0000 -1.0000
vn 0.0000 -1.0000 -0.0000
vn 0.0000 1.0000 0.0000
usemtl Material
s off
f 2/1/1 3/2/1 1/3/1
f 4/4/2 7/5/2 3/2/2
f 8/6/3 5/7/3 7/5/3
f 6/8/4 1/9/4 5/7/4
f 7/5/5 1/10/5 3/11/5
f 4/12/6 6/8/6 8/6/6
f 9/13/1 12/14/1 11/15/1
f 12/14/7 15/16/7 11/15/7
f 16/17/3 13/18/3 15/16/3
f 14/19/8 9/20/8 13/18/8
f 15/16/9 9/21/9 11/22/9
f 12/23/10 14/19/10 16/17/10
f 17/24/1 20/25/1 19/26/1
f 20/25/7 23/27/7 19/26/7
f 24/28/3 21/29/3 23/27/3
f 22/30/8 17/31/8 21/29/8
f 23/27/9 17/32/9 19/33/9
f 20/34/10 22/30/10 24/28/10
f 25/35/1 28/36/1 27/37/1
f 28/36/7 31/38/7 27/37/7
f 32/39/3 29/40/3 31/38/3
f 30/41/8 25/42/8 29/40/8
f 31/38/9 25/43/9 27/44/9
f 28/45/10 30/41/10 32/39/10
f 34/46/1 35/47/1 33/48/1
f 36/49/2 39/50/2 35/47/2
f 40/51/3 37/52/3 39/50/3
f 38/53/4 33/54/4 37/52/4
f 39/50/5 33/55/5 35/56/5
f 36/57/6 38/53/6 40/51/6
f 42/58/1 43/59/1 41/60/1
f 44/61/2 47/62/2 43/59/2
f 48/63/3 45/64/3 47/62/3
f 46/65/4 41/66/4 45/64/4
f 47/62/5 41/67/5 43/68/5
f 44/69/6 46/65/6 48/63/6
f 50/70/1 51/71/1 49/72/1
f 52/73/2 55/74/2 51/71/2
f 56/75/3 53/76/3 55/74/3
f 54/77/4 49/78/4 53/76/4
f 55/74/5 49/79/5 51/80/5
f 52/81/6 54/77/6 56/75/6
f 57/82/1 60/83/1 59/84/1
f 60/83/7 63/85/7 59/84/7
f 64/86/3 61/87/3 63/85/3
f 62/88/8 57/89/8 61/87/8
f 63/85/9 57/90/9 59/91/9
f 60/92/10 62/88/10 64/86/10
f 2/1/1 4/4/1 3/2/1
f 4/4/2 8/6/2 7/5/2
f 8/6/3 6/8/3 5/7/3
f 6/8/4 2/93/4 1/9/4
f 7/5/5 5/7/5 1/10/5
f 4/12/6 2/94/6 6/8/6
f 9/13/1 10/95/1 12/14/1
f 12/14/7 16/17/7 15/16/7
f 16/17/3 14/19/3 13/18/3
f 14/19/8 10/96/8 9/20/8
f 15/16/9 13/18/9 9/21/9
f 12/23/10 10/97/10 14/19/10
f 17/24/1 18/98/1 20/25/1
f 20/25/7 24/28/7 23/27/7
f 24/28/3 22/30/3 21/29/3
f 22/30/8 18/99/8 17/31/8
f 23/27/9 21/29/9 17/32/9
f 20/34/10 18/100/10 22/30/10
f 25/35/1 26/101/1 28/36/1
f 28/36/7 32/39/7 31/38/7
f 32/39/3 30/41/3 29/40/3
f 30/41/8 26/102/8 25/42/8
f 31/38/9 29/40/9 25/43/9
f 28/45/10 26/103/10 30/41/10
f 34/46/1 36/49/1 35/47/1
f 36/49/2 40/51/2 39/50/2
f 40/51/3 38/53/3 37/52/3
f 38/53/4 34/104/4 33/54/4
f 39/50/5 37/52/5 33/55/5
f 36/57/6 34/105/6 38/53/6
f 42/58/1 44/61/1 43/59/1
f 44/61/2 48/63/2 47/62/2
f 48/63/3 46/65/3 45/64/3
f 46/65/4 42/106/4 41/66/4
f 47/62/5 45/64/5 41/67/5
f 44/69/6 42/107/6 46/65/6
f 50/70/1 52/73/1 51/71/1
f 52/73/2 56/75/2 55/74/2
f 56/75/3 54/77/3 53/76/3
f 54/77/4 50/108/4 49/78/4
f 55/74/5 53/76/5 49/79/5
f 52/81/6 50/109/6 54/77/6
f 57/82/1 58/110/1 60/83/1
f 60/83/7 64/86/7 63/85/7
f 64/86/3 62/88/3 61/87/3
f 62/88/8 58/111/8 57/89/8
f 63/85/9 61/87/9 57/90/9
f 60/92/10 58/112/10 62/88/10
